<?xml version="1.0" encoding="utf-8"?>
<!DOCTYPE svg PUBLIC "-//W3C//DTD SVG 1.0//EN" "http://www.w3.org/TR/2001/REC-SVG-20010904/DTD/svg10.dtd">
<svg version="1.0" xmlns="http://www.w3.org/2000/svg" width="304px" height="303px" viewBox="0 0 304 303" preserveAspectRatio="xMidYMid meet">
 <g fill="#fc8848">
  <path d="M46.6 201.8 c-1.4 -5.5 -0.7 -7.7 4.7 -13.1 2.8 -3 7.5 -8.3 10.2 -11.7 6.7 -8.5 19.1 -22 22.9 -24.7 3 -2.3 6.1 -2.8 10.4 -1.7 4.6 1.3 1.7 12 -7.1 25.6 -7.3 11.3 -21.6 23.7 -30.1 26.2 -7.6 2.2 -10.2 2.1 -11 -0.6z"/>
  <path d="M215.1 175.1 c-5.8 -6.1 -14.1 -20.8 -14.1 -24.8 0 -3.4 1.3 -4.3 6.6 -4.3 2.4 0 4.2 0.8 5.7 2.3 1.2 1.3 3.6 2.9 5.4 3.5 1.7 0.6 4.1 2 5.2 3.1 1.3 1.3 4 2.2 8 2.7 8.4 0.9 9.3 1.8 9.5 9 0.1 5.7 0 5.9 -2.6 6.2 -1.9 0.2 -2.8 0.9 -2.8 2.1 0 3.4 -3.3 5.1 -10 5.1 -6.4 0 -6.4 0 -10.9 -4.9z"/>
  <path d="M150.9 175.3 c-0.9 -1 -2.4 -3.5 -3.2 -5.5 -0.9 -2.1 -2 -3.8 -2.6 -3.8 -0.5 0 -1.9 1.5 -3 3.4 -2.3 3.7 -3.9 4.6 -8 4.6 -2.8 0 -7.1 -3.6 -7.1 -5.8 0 -0.7 -0.6 -1.2 -1.2 -1.2 -1.7 -0.1 -7.6 -7.6 -11 -14.1 -2.1 -3.8 -2.8 -6.6 -2.8 -10.5 l0 -5.4 4.8 0.1 c2.6 0.1 5.8 -0.4 7.1 -1.1 1.6 -0.8 4.3 -1 8.2 -0.6 3.3 0.4 6.6 0.3 7.6 -0.3 1 -0.6 4.7 -1.5 8.3 -2 3.6 -0.6 9.4 -1.5 12.8 -2.1 5.2 -1 8.1 -0.9 15.7 0.4 5.1 0.9 11.7 1.6 14.7 1.6 6.7 0 8.8 1.8 8.8 7.8 0 3.6 -0.4 4.4 -3 5.7 -1.6 0.9 -3 2.2 -3 3 0 2.8 -19.7 20.8 -25.9 23.8 -7.5 3.6 -15 4.4 -17.2 2z"/>
 </g>
 <g fill="#fc7940">
  <path d="M22.6 213.3 c-3.6 -0.9 -4.3 -2.3 -6.2 -11 -0.3 -1.6 -1 -3.8 -1.6 -4.9 -0.7 -1.6 -0.6 -4 0.7 -9 1.9 -7.7 3.4 -9.9 8.1 -11.9 3.7 -1.5 18.4 -16.3 18.4 -18.4 0 -4.3 11.7 -17.1 15.5 -17.1 0.7 0 1.7 -1.2 2.4 -2.6 1.9 -4.2 6.2 -9.4 7.8 -9.4 1.2 0 21.5 -10.8 25.9 -13.8 13.2 -8.9 16 -10.2 22.2 -10.2 3.8 0 5.4 -0.4 5.8 -1.5 0.4 -0.8 1.2 -1.5 2 -1.5 0.8 0 1.4 -0.7 1.4 -1.5 0 -1.2 1.4 -1.5 6.8 -1.5 6.5 0 7 -0.1 9.9 -3.5 2.8 -3.1 3.7 -3.5 8.3 -3.5 4.7 0 5.7 0.5 13.1 6.1 l8.1 6.1 10.6 0.3 c11.4 0.3 18.3 1.4 21.9 3.3 1.2 0.7 3.2 1.2 4.5 1.2 4.1 0.1 14.2 6.2 15.9 9.7 2.5 5 3.3 5.7 12.4 10.2 6 3.1 9.9 5.9 13.4 9.7 2.7 3 5.4 5.4 6 5.4 0.5 0 2.2 1.7 3.7 3.8 1.6 2 3.6 4.6 4.6 5.7 1.1 1.1 3.2 3.8 4.8 6 1.6 2.3 4.1 4.7 5.7 5.4 1.5 0.7 3.5 1.7 4.3 2.2 0.8 0.5 2.4 1.3 3.5 1.8 1.2 0.5 2.7 1.6 3.5 2.6 0.7 0.9 3.1 2.5 5.2 3.6 3.7 1.9 3.8 2 3.8 7.7 -0.1 3.1 -0.9 8.2 -2 11.2 -1.1 3 -1.9 6.9 -2 8.6 -0.1 9.1 -12.1 8.4 -19.4 -1.2 -3.7 -4.9 -8.5 -8.3 -11.9 -8.4 -2.6 0 -10.7 -8.6 -15.1 -16 -2.5 -4.1 -4.1 -6 -4.4 -5 -0.7 2.2 -5.4 7 -6.9 7 -0.7 0 -1.3 0.5 -1.3 1 0 0.6 -2.2 1 -5 1 -4.6 0 -5 -0.2 -5 -2.3 0 -2.1 0.5 -2.3 4.1 -2.3 4.1 0.1 7.7 -2.3 6.5 -4.2 -0.8 -1.4 1.9 -3.4 4.1 -3 1.5 0.2 1.7 -0.3 1.5 -2.7 -0.4 -4 -2.1 -5.1 -9.2 -5.9 -4.3 -0.5 -6.7 -1.4 -8.6 -3.1 -1.4 -1.3 -3.9 -2.7 -5.5 -3 -1.7 -0.4 -3.3 -1.3 -3.6 -2.1 -0.7 -2 -3.8 -3.5 -5.7 -2.8 -0.8 0.3 -1.2 1.2 -0.9 2 0.9 2.3 -3.4 1.7 -5.1 -0.7 l-1.5 -2.2 -2.7 2.2 c-1.5 1.2 -4.1 2.1 -6.1 2.1 l-3.4 0 2.6 -2.4 c1.5 -1.4 2.4 -3 2 -3.5 -0.3 -0.6 1 -2 2.9 -3.2 7.1 -4.2 3.6 -7.4 -8.9 -8.3 -4.9 -0.4 -10.6 -0.9 -12.5 -1.2 -4.8 -0.8 -12 -0.5 -13.9 0.5 -0.9 0.5 -4.6 1.2 -8.4 1.6 -3.7 0.4 -7 1.2 -7.3 1.7 -0.3 0.5 -3.8 0.8 -7.7 0.7 -4.9 -0.2 -8.4 0.3 -11 1.4 -2.7 1.2 -4.5 1.4 -6.2 0.7 -2.1 -0.8 -2.5 -0.7 -2.5 1 0 1 0.4 3 1 4.4 0.9 2.3 0.7 2.6 -1.4 2.6 -2 0 -2.8 -1 -4.9 -6.2 l-2.5 -6.3 -1.7 4.2 c-0.9 2.4 -2.1 4.3 -2.6 4.3 -0.5 0 -0.9 0.6 -0.9 1.3 0 0.6 -1.2 4 -2.7 7.5 -2.2 5 -3.2 6.2 -5 6.2 -2 0 -2.1 -0.3 -1.3 -2.6 1.3 -3.3 1.3 -3.1 -1 -3.7 -1.1 -0.3 -3.1 0.4 -4.8 1.7 -3.6 2.7 -16.1 16.2 -22.7 24.6 -2.7 3.4 -7.3 8.7 -10.2 11.6 -3.8 3.8 -5 5.8 -4.6 7.3 0.4 1.6 0.9 1.8 3 1 3.7 -1.4 5.3 -1.1 5.3 1 0 1.6 -1 2.1 -5.7 2.6 -6.6 0.7 -13.3 3.4 -13.3 5.3 0 3.5 -9.8 6.2 -16.4 4.5z"/>
  <path d="M149.8 175 c-0.9 -0.6 -2.2 -2.6 -2.8 -4.5 -1.2 -3.5 -3 -4.8 -3 -2 0 0.8 -1.1 1.7 -2.5 2.1 -1.6 0.4 -2.5 1.3 -2.5 2.5 0 1.5 -0.7 1.9 -3.5 1.9 -3.2 0 -3.5 -0.2 -3.5 -3 0 -2.6 -0.4 -3 -2.8 -3 -3.5 0 -6.2 -3.1 -6.2 -7.3 l0.1 -3.2 2.4 2.8 c1.3 1.5 2.9 2.7 3.5 2.7 0.5 0 1 0.6 1 1.3 0 0.8 1.1 2.4 2.5 3.7 l2.4 2.3 2.3 -2.8 c1.3 -1.5 3.6 -4.1 5.1 -5.8 2.7 -2.9 2.8 -2.9 4.9 -1.1 1.1 1.1 2.9 3.8 3.9 6.2 1 2.4 2.3 4 2.9 3.7 0.5 -0.3 1 0.1 1 0.9 0 1 0.6 1.3 1.5 1 0.9 -0.4 1.5 0 1.5 1 0 1.8 -5.4 2.2 -8.2 0.6z"/>
 </g>
 <g fill="#fc6b3a">
  <path d="M19.3 211.8 c-1 -1.2 -1.7 -3.8 -3 -10.3 -0.3 -1.6 -1.4 -4.1 -2.4 -5.5 -5.6 -7.9 -10.4 -52.2 -6.4 -59.6 1 -1.9 2.7 -3.7 3.8 -4 1.2 -0.4 4.1 -2.1 6.6 -3.9 2.5 -1.7 5.9 -3.5 7.6 -3.9 1.6 -0.4 5.9 -3.6 9.5 -7.1 16.9 -16.5 22.3 -21.5 23.3 -21.5 0.6 0 4 -1.8 7.6 -4 3.6 -2.1 8.6 -4.6 11 -5.5 2.4 -0.8 5 -2 5.8 -2.6 2.1 -1.8 22.1 -9.6 29.3 -11.5 3.6 -1 7 -2.1 7.6 -2.6 0.6 -0.5 4.7 -1.1 9.1 -1.5 9.2 -0.7 25.6 2 28.8 4.7 1.1 0.9 3.2 2.4 4.8 3.3 2.7 1.7 2.7 1.7 3.7 -0.8 0.6 -1.5 1 -3.1 1 -3.7 0 -0.7 4.2 -0.9 12.8 -0.6 10.7 0.4 14.2 0.9 22.2 3.5 5.2 1.7 11.7 3.6 14.5 4.3 2.7 0.6 6.4 2.2 8.1 3.5 1.7 1.3 4.4 2.7 6 3.1 4 1 14.2 6.2 15.1 7.8 0.5 0.7 2.8 2.7 5.3 4.4 8.3 5.9 12.3 9.2 13.6 11.1 0.8 1 3.3 3.1 5.8 4.5 2.4 1.4 4.6 3.2 4.9 4 0.6 1.6 8 6.6 9.7 6.6 0.5 0 3.7 1.2 6.9 2.7 l5.9 2.7 0.8 9.6 c0.9 12.1 -0.1 29.9 -2.2 41.1 -1.4 7.3 -1.9 8.5 -3.1 7.4 -0.7 -0.8 -1.3 -2.7 -1.3 -4.4 0 -2.5 -0.7 -3.4 -3.8 -5 -2.1 -1.1 -4.5 -2.7 -5.2 -3.6 -0.8 -1 -2.3 -2.1 -3.5 -2.6 -1.1 -0.5 -2.7 -1.3 -3.5 -1.8 -0.8 -0.5 -2.8 -1.5 -4.3 -2.2 -1.6 -0.7 -4.1 -3.1 -5.7 -5.4 -1.6 -2.2 -3.7 -4.9 -4.8 -6 -1 -1.1 -3 -3.7 -4.6 -5.7 -1.5 -2.1 -3.2 -3.8 -3.7 -3.8 -0.6 0 -3.3 -2.4 -6 -5.4 -3.5 -3.8 -7.4 -6.6 -13.4 -9.7 -9.1 -4.5 -9.9 -5.2 -12.4 -10.2 -1.7 -3.5 -11.8 -9.6 -15.9 -9.7 -1.3 0 -3.3 -0.5 -4.5 -1.2 -3.7 -2 -10.7 -2.9 -21.4 -2.9 l-10.3 0.1 -8.4 -6.5 c-4.6 -3.6 -9.3 -6.5 -10.5 -6.5 -1.1 0 -3.8 1.8 -5.9 3.9 -3.9 3.9 -4 4 -9.5 3.4 -5.4 -0.5 -5.8 -0.4 -8.4 2.6 -2.4 2.7 -3.4 3.1 -7.8 3.1 -5.8 0 -8.8 1.4 -21.9 10.2 -4.6 3.2 -25.3 14.2 -26.2 14 -1.3 -0.3 -5.7 5.2 -7.5 9.2 -0.7 1.4 -1.7 2.6 -2.4 2.6 -3.8 0 -15.5 12.8 -15.5 17.1 0 2.1 -14.7 16.9 -18.4 18.4 -4.5 1.9 -6.2 4.2 -7.9 10.8 -1.8 7.3 -0.7 14.2 2.8 17.4 1.3 1.3 2.9 2.3 3.5 2.3 0.5 0 1 0.7 1 1.5 0 1.9 -5.3 2.1 -6.7 0.3z"/>
  <path d="M29 212.1 c0 -0.5 1.6 -1.8 3.5 -3 3.4 -2 4.6 -4.1 2.4 -4.1 -0.5 0 -0.7 -0.5 -0.3 -1.1 0.3 -0.6 1.4 -0.9 2.4 -0.6 1 0.3 2.8 -0.4 4 -1.5 2.6 -2.4 8 -1.7 8 1.2 0 1.3 -1 1.9 -3.9 2.4 -2.1 0.3 -4.1 1.3 -4.5 2.1 -0.3 0.8 -1.5 1.5 -2.6 1.5 -1.3 0 -2 0.7 -2 2 0 1.6 -0.7 2 -3.5 2 -1.9 0 -3.5 -0.4 -3.5 -0.9z"/>
  <path d="M280.7 209.3 c-0.4 -0.3 -0.7 -1.6 -0.7 -2.8 0 -1.4 0.6 -2.1 2 -2.1 1.1 0 2 0.5 2 1 0 0.5 0.9 0.1 2 -0.9 1.1 -1 2 -2.4 2 -3.2 0 -0.7 0.7 -1.3 1.5 -1.3 1.8 0 2 3.8 0.3 7.5 -0.9 2 -1.8 2.5 -4.8 2.5 -2 0 -4 -0.3 -4.3 -0.7z"/>
  <path d="M261 192.1 c0 -2.5 3 -3.1 5.3 -1.1 2.6 2.2 2.1 3 -1.8 3 -2.8 0 -3.5 -0.4 -3.5 -1.9z"/>
  <path d="M150.9 179.3 c-0.9 -0.2 -2.4 -2.2 -3.4 -4.3 -2 -4.5 -3.4 -4.9 -6 -2 -1.1 1.2 -3.1 2 -5.2 2 -2.9 0 -3.3 -0.3 -3.3 -2.6 0 -1.9 0.3 -2.4 1.3 -1.7 0.8 0.6 2 0 3.7 -1.7 1.4 -1.5 2.6 -3 2.7 -3.5 0 -0.4 1.5 -1.7 3.2 -2.7 l3.1 -2 2.4 5.5 c2.4 5.4 4.5 7.2 7.9 6.8 1.3 -0.2 1.7 0.5 1.7 3.3 0 3.4 -0.2 3.6 -3.2 3.5 -1.8 -0.1 -4 -0.3 -4.9 -0.6z"/>
  <path d="M237.8 170 c1.7 -1.6 3.2 -3.4 3.2 -4 0 -1.8 1.7 -1.1 2.7 1.2 1.4 3.2 -1.2 5.8 -5.7 5.8 l-3.5 -0.1 3.3 -2.9z"/>
  <path d="M98.7 145.4 c0.3 -0.9 0 -2 -0.8 -2.5 -1.1 -0.7 -1 -0.9 0.5 -0.9 1 0 2.5 -0.8 3.2 -1.7 1.2 -1.6 1.3 -1.3 1.4 2.5 0 3.8 -0.2 4.2 -2.5 4.2 -1.8 0 -2.3 -0.4 -1.8 -1.6z"/>
 </g>
 <g fill="#fc5b37">
  <path d="M18.1 208.3 c0 -1.6 0.3 -2.2 0.6 -1.5 0.2 0.6 1.1 1.2 1.9 1.2 0.8 0 1.4 0.7 1.4 1.5 0 0.8 -0.9 1.5 -2 1.5 -1.5 0 -2 -0.6 -1.9 -2.7z"/>
  <path d="M283 208.5 c0 -1.7 0.4 -2.3 1.4 -1.9 0.9 0.3 2 -0.3 2.8 -1.5 1.3 -2.2 3.8 -2.9 3.8 -1.1 0 0.6 -0.7 2.4 -1.5 4 -2 4 -6.5 4.3 -6.5 0.5z"/>
  <path d="M7.7 173.5 c-0.4 -2.2 -0.6 -5.3 -0.6 -7 0.1 -1.6 0.5 -0.3 1 3 1 6.7 0.6 10.2 -0.4 4z"/>
  <path d="M135.6 174.4 c-0.5 -1.4 3.8 -6.3 5.7 -6.4 0.5 0 0.6 -0.4 0.3 -0.8 -0.8 -1.4 3.1 -5.5 4.7 -4.9 2.2 0.8 1.6 5.6 -1.3 9.9 -2 3 -3.1 3.8 -5.6 3.8 -2 0 -3.4 -0.6 -3.8 -1.6z"/>
  <path d="M149 172.6 l0.1 -3.1 1.3 2.4 c0.9 1.7 1.5 2 1.8 1 0.4 -1.1 0.8 -1.2 2 -0.2 0.8 0.7 1.8 1 2.1 0.6 0.4 -0.3 0.7 0.1 0.7 1 0 1.2 -1 1.6 -4 1.5 -3.8 0 -4 -0.2 -4 -3.2z"/>
  <path d="M6.5 138 c1.9 -22 8.9 -44.8 19.7 -63.7 3.7 -6.6 4.5 -7.3 7.2 -7.3 3.1 0 19.5 -7.7 25.3 -11.8 1.7 -1.2 3.6 -2.2 4.1 -2.2 0.6 0 1.2 -0.4 1.4 -0.9 0.2 -0.5 2.7 -2.7 5.5 -5 5.8 -4.5 13.8 -8.1 18.2 -8.1 2.6 0 6.7 -1.1 11.6 -2.9 9.4 -3.7 21.5 -5 49.5 -5.3 14.9 -0.2 24.7 0.1 29 1 3.6 0.7 9.1 1.5 12.3 1.8 3.9 0.4 5.7 1 5.7 1.9 0 2 0.5 2.2 14.4 4.5 10.2 1.7 14.2 2.9 19.2 5.6 3.5 1.9 7.1 3.4 8.2 3.4 1 0 2.2 0.4 2.8 0.9 0.8 0.8 7 2.5 13.9 3.8 1.7 0.3 3.9 1.2 5 1.9 1.1 0.8 3.2 1.4 4.7 1.4 2.3 0 3.6 1.2 7.8 7.1 6.8 9.8 15.4 26.9 19 37.9 2.6 8 7 26.8 7 29.9 0 1.5 -3.9 0.9 -7 -1.1 -1.4 -0.9 -4.3 -2.2 -6.5 -2.9 -5.2 -1.7 -11.4 -5.6 -12.2 -7.5 -0.3 -0.8 -2.5 -2.6 -4.9 -4 -2.5 -1.4 -5 -3.5 -5.8 -4.5 -1.3 -1.9 -5.3 -5.2 -13.6 -11.1 -2.5 -1.7 -4.8 -3.7 -5.3 -4.4 -0.9 -1.6 -11.1 -6.8 -15.1 -7.8 -1.6 -0.4 -4.3 -1.8 -6 -3.1 -1.7 -1.3 -5.4 -2.9 -8.1 -3.5 -2.8 -0.7 -9.3 -2.6 -14.5 -4.3 -6.8 -2.1 -12.2 -3.1 -19 -3.5 l-9.5 -0.4 -1.5 4.3 c-1.8 5.2 -3.9 5.9 -8 2.7 -1.6 -1.3 -4.2 -3.2 -5.7 -4.4 -5.7 -4.2 -28.4 -6.6 -32.8 -3.5 -0.5 0.4 -3.9 1.5 -7.5 2.5 -7.2 1.9 -27.2 9.7 -29.3 11.5 -0.8 0.6 -3.4 1.8 -5.8 2.6 -2.4 0.9 -7.4 3.4 -11 5.5 -3.6 2.2 -7 4 -7.6 4 -1 0 -7.4 5.9 -22.8 20.9 -5.8 5.7 -10.2 8.8 -11.8 8.3 -0.4 -0.1 -2.9 1.3 -5.5 3.2 -2.7 1.8 -5.7 3.6 -6.8 4 -1 0.4 -3.4 2.8 -5.2 5.4 l-3.4 4.7 0.7 -7.5z"/>
 </g>
 <g fill="#f55034">
  <path d="M130.1 294.5 c-45.4 -8.7 -83.2 -35.6 -107.1 -76.1 -2.7 -4.6 -5 -8.9 -5 -9.4 0 -0.6 0.9 -1 2 -1 1.1 0 2 0.4 2 0.9 0 0.5 1.8 1.1 4 1.5 3.7 0.6 5.6 2.9 3 3.8 -0.5 0.2 1.2 3.7 3.8 7.8 29 45.2 82.8 73.2 130.7 68.1 36.6 -3.9 66.3 -18.3 91 -44.2 11.4 -11.9 20.7 -24.5 26.5 -35.8 1.9 -3.9 2.1 -4 4.8 -2.9 1.5 0.7 2.9 1.3 3.1 1.5 0.8 0.5 -9.7 17.3 -16.5 26.3 -8.4 11.2 -22.6 25.3 -34 33.7 -15.4 11.4 -37.8 21 -57.4 24.8 -12 2.2 -41.3 2.8 -50.9 1z"/>
  <path d="M187 214.2 c-3.1 -1.5 -9.2 -6.2 -14 -10.8 -4.7 -4.5 -9.9 -8.9 -11.6 -9.7 -6.4 -3.3 -12.4 -13 -12.3 -20.2 0 -3.6 0.1 -3.8 1.2 -2 0.9 1.6 2.1 2 5.5 1.8 3.5 -0.2 4.2 0 4.2 1.6 0 3.2 5.8 10.1 9.1 10.8 2.1 0.4 5.1 2.9 9.7 8 5.9 6.6 17.4 15.3 20.2 15.3 0.5 0 1 1.8 1 4 0 4 0 4 -3.7 4 -2.1 -0.1 -6.3 -1.3 -9.3 -2.8z"/>
  <path d="M90 212.8 c0 -2.8 0.9 -4.1 5.8 -8.1 3.1 -2.6 7.7 -7.2 10.2 -10.1 2.5 -2.9 6.9 -7 9.9 -9.1 2.9 -2.1 8.2 -6.4 11.6 -9.7 3.8 -3.5 6.6 -5.4 7 -4.8 0.4 0.6 1.5 0.8 2.6 0.5 1.2 -0.4 1.9 -0.2 1.9 0.6 0 0.7 1.4 -0.7 3 -3 1.7 -2.3 2.8 -4.6 2.5 -5.1 -0.4 -0.6 -0.2 -1 0.2 -1 0.5 0 1.4 0.9 2 2 1.7 2.7 0 7 -2.7 7 -1.4 0 -2 0.7 -2 2.3 0 2.7 -10.8 13.7 -17.6 18 -2.3 1.4 -6.8 5.5 -10 9.2 -8.7 9.7 -15.4 14.5 -20.4 14.5 -3.9 0 -4 -0.1 -4 -3.2z"/>
  <path d="M280.5 82.9 c-0.4 -0.6 -0.5 -1.3 -0.2 -1.6 0.7 -0.7 2.7 0.6 2.7 1.8 0 1.2 -1.7 1.2 -2.5 -0.2z"/>
  <path d="M26 74.5 c6.8 -11.5 13.6 -20.1 24 -30.6 21.3 -21.3 44.8 -34 75 -40.5 6.6 -1.4 13 -1.8 28 -1.8 21.3 0 28.4 1.1 47 7.6 23.8 8.4 48.1 25.4 64.5 45.3 7.1 8.6 16.1 22.2 15.2 23.1 -1.2 1.2 -4.8 -1.9 -5.3 -4.6 -0.4 -1.6 -1.5 -3.7 -2.6 -4.7 -1.1 -1 -3.4 -3.3 -5.2 -5 -1.9 -2 -4.3 -3.3 -5.7 -3.3 -1.3 0 -3.5 -0.7 -4.7 -1.6 -1.2 -0.8 -2.8 -1.4 -3.5 -1.1 -0.6 0.2 -2.5 -0.2 -4 -1 -1.5 -0.8 -3.2 -1.1 -3.7 -0.8 -0.5 0.3 -1.7 0.2 -2.7 -0.3 -5.2 -2.7 -7.4 -3.5 -8 -2.9 -0.3 0.4 -1.1 0.3 -1.7 -0.2 -0.6 -0.5 -3.6 -2.2 -6.6 -3.9 -5.2 -2.7 -9.5 -3.9 -17.4 -4.7 -8.3 -0.9 -14.9 -2.8 -15.3 -4.5 -0.3 -1.1 -1.1 -1.6 -2.3 -1.3 -1 0.3 -2.1 0 -2.4 -0.6 -0.4 -0.6 -3.1 -1.1 -5.9 -1.1 -2.9 0 -8 -0.7 -11.2 -1.6 -4.5 -1.1 -8.1 -1.4 -14 -0.8 -4.4 0.4 -11.4 0.6 -15.7 0.5 -4.2 -0.1 -7.9 0.3 -8.2 0.8 -0.4 0.6 -1.7 0.6 -3.6 0 -1.9 -0.7 -4 -0.7 -6.2 -0.1 -1.8 0.5 -4.3 1 -5.5 1.1 -6.3 0.4 -11.9 1.5 -15.8 3.1 -4.3 1.8 -8.9 3 -11.6 3 -4.4 0 -12.4 3.6 -18.2 8.1 -2.8 2.3 -5.3 4.5 -5.5 5 -0.2 0.5 -0.8 0.9 -1.4 0.9 -0.5 0 -2.3 0.9 -3.8 2 -3.4 2.4 -16.1 9.1 -21 11 -1.9 0.7 -4.3 2.3 -5.2 3.4 l-1.8 2.1 -0.6 -2.3 c-0.8 -3 -3.5 -2.5 -5.1 0.9 -0.7 1.5 -2.1 3.3 -3 4 -1.2 1 -1 0.3 0.7 -2.6z"/>
 </g>
 <g fill="#cc4e3d">
  <path d="M158 295 c0 -0.5 -0.7 -1 -1.5 -1 -0.8 0 -1.5 -0.7 -1.5 -1.5 0 -2.7 11.9 -3.4 12.8 -0.7 0.2 0.7 -0.5 1.2 -1.8 1.2 -1.2 0 -1.9 0.4 -1.6 0.9 0.3 0.5 -0.4 1.1 -1.7 1.5 -3.2 0.8 -4.7 0.7 -4.7 -0.4z"/>
  <path d="M131.8 292.3 c-3.3 -0.8 -2 -3.3 1.7 -3.3 1.9 0 3.5 0.5 3.5 1 0 0.6 0.9 1 2 1 1.1 0 2 0.5 2 1 0 1 -5.9 1.2 -9.2 0.3z"/>
  <path d="M89 213 c0 -3.9 0.1 -4 3.5 -4 3.9 0 4.3 0.6 1.8 2.6 -1.7 1.3 -1.7 1.3 0 1.4 1 0 1.7 0.8 1.7 2 0 1.6 -0.7 2 -3.5 2 -3.4 0 -3.5 -0.1 -3.5 -4z"/>
  <path d="M141.8 1.3 c1.2 -0.2 3 -0.2 4 0 0.9 0.3 -0.1 0.5 -2.3 0.4 -2.2 0 -3 -0.2 -1.7 -0.4z"/>
 </g>
 <g fill="#404d57">
  <path d="M45.8 245.6 c-5.8 -6.4 -6.9 -8.6 -4.6 -8.6 0.7 0 4.7 -1.7 8.8 -3.7 6.3 -3.2 8.5 -3.8 14 -3.8 l6.5 0 0.3 4.2 c0.3 4 0.1 4.3 -6.5 9.5 -6.1 4.8 -11.7 8.8 -12.5 8.8 -0.2 0 -2.9 -2.9 -6 -6.4z"/>
  <path d="M139 243.3 c-1.9 -0.9 -4.8 -1.9 -6.5 -2.2 -2.6 -0.6 -3 -1.2 -3.3 -4.3 l-0.3 -3.6 5.8 -0.6 c16.6 -1.7 25.9 -3.7 33.7 -7.3 5.7 -2.5 9.6 -3.7 13.1 -3.7 l5 -0.1 0.3 3.5 c0.3 3.2 -0.2 3.9 -4.5 7 -7.8 5.8 -11.4 7.7 -19.5 10.4 -8.8 3 -18.3 3.3 -23.8 0.9z"/>
  <path d="M261 236.6 c-5.4 -1.1 -5.5 -1.2 -5.8 -4.8 -0.3 -3.3 0 -3.8 2.3 -4.4 1.5 -0.4 4.7 -0.4 7.2 0 3.5 0.5 4.8 0.2 5.7 -1 0.7 -0.9 2.3 -1.4 3.8 -1.2 l2.7 0.3 -4.5 6 c-2.5 3.3 -4.8 6.1 -5.2 6.1 -0.4 0.1 -3.2 -0.4 -6.2 -1z"/>
 </g>
 <g fill="#1a363f">
  <path d="M167 289.7 l0 -3.5 7.5 -0.7 c4.1 -0.3 7.9 -0.4 8.5 0 0.6 0.4 1.7 -0.1 2.4 -1 1.3 -1.8 8 -3.3 14.9 -3.4 3 -0.1 3.7 0.3 3.7 1.8 0 1.5 -1.5 2.4 -6.8 4 -8.5 2.6 -18.1 4.7 -24.9 5.6 l-5.3 0.7 0 -3.5z"/>
  <path d="M156.6 279.2 c-0.3 -0.5 -0.8 -2.9 -1.2 -5.3 -0.9 -5.6 -2.3 -6.9 -7.1 -6.9 -5 0 -6.3 -1.4 -6.3 -6.7 0 -3.2 0.5 -4.5 2 -5.3 1.1 -0.6 2 -1.7 2 -2.5 0 -0.8 0.9 -1.5 2 -1.5 1.3 0 2 -0.7 2 -2 0 -1.1 -0.7 -2 -1.5 -2 -0.9 0 -1.5 -0.9 -1.5 -2.5 0 -2 0.5 -2.5 2.6 -2.5 3.4 0 17 -4.6 21.4 -7.3 5.9 -3.5 12.5 -8.9 12.2 -9.8 -0.1 -0.5 1.6 -0.9 3.7 -0.9 2.2 0 4.3 -0.4 4.6 -1 0.3 -0.5 2.4 -1 4.5 -1 3 0 4.3 0.6 5.9 2.6 2.8 3.6 2.9 11.2 0.1 14.7 -1.1 1.4 -2 3.2 -2 4.1 0 1 -0.9 1.6 -2.2 1.6 -2.4 0.1 -6.8 3.1 -6.8 4.7 0 0.5 -2.2 2.9 -5 5.3 -2.7 2.4 -5.5 5.9 -6.1 7.7 -0.6 1.8 -2.3 4.2 -3.8 5.3 -1.6 1.1 -3.1 3.3 -3.4 4.9 -1 5.1 -3.9 7.1 -10.1 7.1 -3 0 -5.7 -0.4 -6 -0.8z"/>
  <path d="M213 276.5 l0 -3.5 6 0 c3.3 0 6 0.4 6 1 0 1 -9.1 6 -11 6 -0.5 0 -1 -1.6 -1 -3.5z"/>
  <path d="M63.8 262.4 c-5 -3.8 -6.2 -6.4 -2.8 -6.4 1.1 0 2 -0.4 2 -0.9 0 -0.5 -0.9 -1.1 -2 -1.4 -1.2 -0.3 -2 -1.4 -2 -2.6 0 -1.4 -0.6 -2.1 -2 -2.1 -1.5 0 -2 0.7 -2 2.5 0 3.3 -1 3.2 -4.6 -0.6 -1.6 -1.7 -2.4 -2.9 -1.9 -2.8 2.8 0.8 19.7 -12.3 19.3 -14.9 -0.2 -1.3 0.6 -1.8 3.5 -2 3.4 -0.3 3.7 -0.1 3.7 2.2 0 2 0.6 2.5 2.8 2.8 2.5 0.3 2.7 0.7 3 5.1 0.2 3.4 -0.1 4.7 -1.1 4.7 -0.7 0 -2.4 2.9 -3.8 6.5 -2.1 5.6 -2.7 6.5 -4.9 6.5 -2.4 0 -2.6 0.3 -2.2 3.5 0.2 1.9 0.3 3.5 0.1 3.5 -0.2 0 -2.5 -1.7 -5.1 -3.6z"/>
  <path d="M195 215.1 c0 -0.5 0.6 -1.2 1.3 -1.5 1 -0.5 1 -0.7 0 -1.2 -1.6 -0.7 -1.7 -3.6 -0.1 -5.2 0.7 -0.7 2.7 -1.2 4.5 -1.2 3.1 0 3.3 0.2 3.3 3.3 -0.1 4.4 -2.1 6.7 -5.9 6.7 -1.7 0 -3.1 -0.4 -3.1 -0.9z"/>
 </g>
 <g fill="#172430">
  <path d="M103.5 285.1 c-14.6 -5.2 -36.5 -18.5 -36.5 -22.1 0 -2.3 2 -7 3.1 -7 0.4 0 0.9 -1 1.3 -2.2 0.3 -1.3 2.8 -4.8 5.5 -7.8 2.8 -3 5.1 -6.1 5.1 -6.7 0 -0.8 1.4 -1.3 3.5 -1.3 3.2 0 3.5 0.2 3.5 3 0 3.1 2.3 4.2 3.3 1.6 0.7 -1.7 -5.3 -7.6 -7.6 -7.6 -0.9 0 -1.7 -0.7 -1.7 -1.5 0 -1 -1.1 -1.5 -3.5 -1.5 -3.4 0 -3.5 -0.1 -3.5 -4 0 -3.3 0.3 -4 1.9 -4 1.3 0 2.1 -0.8 2.3 -2.2 0.2 -1.9 1 -2.4 4.1 -2.6 3.1 -0.3 3.7 0 3.7 1.6 0 1.5 0.5 1.8 2.5 1.4 1.4 -0.2 2.5 -1.1 2.5 -1.8 0 -0.9 1.1 -1.4 3.3 -1.3 2.6 0 4 1 7.2 4.9 3.8 4.6 6.7 6.1 8 4.1 0.3 -0.5 3.1 -1.3 6.2 -1.7 4.9 -0.6 5.9 -0.4 7.2 1.2 0.9 1.1 3.3 3.4 5.4 5.2 2.1 1.7 3.2 3.2 2.5 3.2 -2.1 0 0.5 1.8 3.2 2.2 1.9 0.2 2.6 1 2.8 3.1 0.3 2.6 0.2 2.7 -4.5 2.7 -5.9 0 -9 1.5 -5.1 2.5 2.9 0.8 4.8 4.2 4.8 8.8 0 2.5 -0.8 3.8 -3.5 5.7 -1.9 1.4 -3.5 3.1 -3.5 3.8 0 0.6 -0.4 1.2 -1 1.2 -0.5 0 -1 0.7 -1 1.5 0 0.8 -0.9 1.5 -2 1.5 -1.6 0 -2 0.7 -2 3.5 0 2.8 -0.6 3.9 -3.7 6 -2.1 1.4 -4.3 2.5 -5 2.5 -0.8 0 -1.3 1.2 -1.3 3 0 3.5 -0.6 3.5 -7.5 1.1z"/>
  <path d="M165.2 284.5 c-1.9 -4.1 -1.4 -6.4 1.7 -9.6 2.6 -2.5 3.7 -2.9 8.5 -2.9 5.1 0 5.6 0.2 5.6 2.3 0 5.6 -1.4 10 -3.2 10.5 -1 0.2 -1.8 0.8 -1.8 1.3 0 0.5 -2.2 0.9 -4.8 0.9 -4.3 0 -5 -0.3 -6 -2.5z"/>
  <path d="M216.1 269 c-2.3 -5.5 -4.3 -8.7 -6.3 -10.1 -2.9 -2.1 -2.9 -2.3 -2.4 -9.3 0.2 -3.9 0.6 -8.4 0.8 -10.1 0.2 -2.5 -0.1 -3.1 -2.1 -3.3 -5 -0.7 -6.5 -4.8 -4.9 -12.8 0.6 -3 1.5 -5.4 2 -5.4 1 0 0 -5 -1.3 -6.4 -2 -2.2 -0.8 -7.7 2.9 -13.4 2 -3.1 4.2 -6.6 4.8 -7.7 0.8 -1.4 2.3 -2.1 5.2 -2.3 4 -0.3 4.1 -0.3 8 6.5 2.2 3.7 4.8 8.6 5.8 10.8 1.1 2.2 2.2 4.2 2.7 4.3 0.4 0.2 0.7 1.5 0.7 2.8 0 1.3 0.4 2.4 1 2.4 0.5 0 2.9 1.9 5.3 4.3 5.3 5.2 20.3 13.4 26.3 14.3 2.4 0.3 4.4 1.2 4.4 1.8 0 2.2 -18.9 21.4 -27.4 28 -8.9 6.8 -17 12.1 -20.2 13 -1.8 0.5 -2.4 -0.4 -5.3 -7.4z m8.1 -29.1 c1 -0.6 -3.1 -5.4 -7.3 -8.7 -1.5 -1.1 -1.6 -0.8 -1.1 3.5 0.6 5.9 1.7 8.2 4.5 9.2 1.8 0.7 2.3 0.5 2.6 -1.3 0.1 -1.1 0.8 -2.4 1.3 -2.7z m-11.2 -18.9 c0 -0.5 1.4 -1 3 -1 2.8 0 3 -0.2 3 -4 0 -2.9 0.4 -4 1.5 -4 1.1 0 0.6 -1.5 -1.8 -5.9 -3.4 -6.2 -4.7 -6.8 -4.7 -2.2 0 1.6 -0.7 3.4 -1.5 4.1 -1.7 1.4 -2.2 14 -0.5 14 0.6 0 1 -0.4 1 -1z"/>
  <path d="M113.1 199.8 c-1.1 -2.8 1.8 -6.3 9.6 -11.4 5.1 -3.5 17.7 -16 20.8 -20.8 1 -1.4 2.1 -2.6 2.6 -2.6 0.5 0 2.9 4 5.3 8.8 2.5 4.9 5.6 10.3 7.1 12 2.9 3.5 2.2 4.5 -3.3 4.1 -2.1 -0.2 -4.3 0.1 -5.1 0.5 -0.7 0.5 -4.1 0.5 -7.7 0.1 -5.9 -0.6 -7 -0.4 -13.4 2.6 -6.3 2.9 -7 3.5 -7 6 0 2.7 -0.3 2.9 -4 2.9 -3.3 0 -4.2 -0.4 -4.9 -2.2z"/>
  <path d="M262.6 199.1 c-2.1 -2.2 -2.7 -3.6 -2.4 -6.4 l0.3 -3.6 5.5 2.2 c5.4 2.1 5.5 2.3 5.8 6.5 0.3 4.2 0.3 4.2 -3.1 4.2 -2.4 0 -4.1 -0.8 -6.1 -2.9z"/>
  <path d="M87.5 197 c-0.3 -0.5 -2.2 -1 -4.1 -1 -3.4 0 -3.4 0 -3.4 -4.5 0 -4.1 0.2 -4.5 2.5 -4.5 2.3 0 2.5 -0.4 2.5 -4.1 0 -2.6 0.8 -5.3 2.5 -7.7 1.5 -2.2 2.5 -5.1 2.5 -7.2 0 -2 0.5 -4.1 1 -4.6 0.6 -0.6 1.2 -2 1.5 -3.2 0.2 -1.2 2.8 -7.4 5.9 -13.9 3 -6.5 6 -13.7 6.7 -16 0.7 -2.4 1.5 -4.3 1.8 -4.3 0.4 0 1.4 2.4 2.4 5.3 3.7 10.6 10.6 23.3 16.5 30.4 6.3 7.4 6.4 8.3 0.8 8.3 -1.3 0 -3.5 0.9 -4.9 2 -1.4 1.1 -3.7 2 -5.1 2 -1.6 0 -2.6 0.6 -2.6 1.5 0 0.8 -1 1.7 -2.2 2 -2.1 0.5 -2.3 1.1 -2 5.6 0.5 5.9 -0.2 6.9 -8 11.4 -5.9 3.5 -12.9 4.7 -14.3 2.5z"/>
  <path d="M112.2 192.5 c0.2 -1.1 3.2 -3.9 7.1 -6.6 3.8 -2.5 9.1 -6.8 11.8 -9.5 2.7 -2.6 4.9 -4.3 4.9 -3.8 0 1.5 -9.2 10 -16.5 15.4 -3.3 2.4 -6.4 4.8 -6.8 5.4 -0.5 0.7 -0.7 0.3 -0.5 -0.9z"/>
  <path d="M230.7 184.7 c-3.3 -2.9 -5 -6.7 -2.9 -6.7 0.4 0 3.7 -2.5 7.2 -5.5 3.6 -3 7 -5.5 7.5 -5.5 0.6 0 3 3.3 5.4 7.3 2.5 3.9 5.1 8 5.9 8.9 1.3 1.5 1.2 1.8 -1.2 2.4 -1.5 0.3 -3.8 0.4 -5.3 0.1 -1.6 -0.3 -3.2 0.1 -4 0.9 -2.6 2.5 -8.4 1.6 -12.6 -1.9z"/>
  <path d="M158.4 181.7 c-1.2 -1.8 -2.5 -4.4 -2.9 -5.7 -0.4 -1.4 0.6 -0.4 2.4 2.4 1.8 2.6 3.1 5.2 2.9 5.7 -0.2 0.4 -1.2 -0.6 -2.4 -2.4z"/>
  <path d="M190.5 180 c-1.5 -2.4 -1.6 -11.9 -0.2 -18.2 1.5 -6.9 1.2 -8.9 -0.7 -6.2 -0.8 1 -2.4 1.4 -4.6 1.2 l-3.5 -0.3 7 -5.6 c3.9 -3 8 -5.8 9.2 -6.1 2.6 -0.7 3.8 0.6 10.1 12.2 2.2 4.1 5.3 9.1 6.7 11 2.2 3 2.4 3.6 1 4.6 -0.8 0.6 -1.5 2.5 -1.5 4.1 0 3 -0.1 3 -6.1 3.7 -9.1 0.9 -16.7 0.7 -17.4 -0.4z"/>
 </g>
 <g fill="#2c3c47">
  <path d="M141 292 c0 -1.3 0.7 -2 1.9 -2 1.1 0 2.3 -0.4 2.6 -1 0.8 -1.3 4.6 -1.3 10.1 0.1 3.2 0.8 4.4 1.6 4.4 3 0 1.7 -0.9 1.9 -9.5 1.9 -8.8 0 -9.5 -0.1 -9.5 -2z"/>
  <path d="M64.1 260.8 c-0.1 -1.9 -1.7 -2.5 -2.3 -0.9 -0.1 0.5 -3.4 -2 -7.3 -5.5 -3.8 -3.6 -6.5 -6.3 -5.9 -6.2 1.4 0.4 9.6 -5 15.4 -10 3.8 -3.3 4.3 -4.2 3.2 -5.5 -1.1 -1.3 -0.7 -2 2.8 -4.8 3.4 -2.7 3.8 -3.5 2.7 -4.6 -1.1 -1.2 -2.4 -0.9 -7.8 1.5 -9 4.1 -15.2 5.3 -24.4 4.9 l-8 -0.4 -5.2 -8.4 c-2.9 -4.6 -5.3 -8.9 -5.3 -9.6 0 -0.8 1.6 -1.2 4.3 -1.2 11 0.1 12.7 -0.1 12.7 -1.6 0 -0.8 -0.8 -1.5 -1.7 -1.5 -1.5 0 -1.5 -0.2 0.3 -2.1 1.3 -1.3 5.3 -2.7 10.7 -3.9 4.7 -1 9.8 -2.6 11.4 -3.4 3.8 -2 13 -9.8 17.5 -14.9 2.1 -2.3 3.8 -3.6 3.8 -2.9 0 0.7 1.4 1.2 3.4 1.2 3.1 0 3.4 0.3 3.9 3.7 0.5 3 0.2 4.2 -1.3 5.8 -1.2 1.1 -2 1.4 -2 0.7 0 -0.7 -0.4 -1.2 -0.8 -1.2 -0.4 0 -0.8 2.5 -0.9 5.5 -0.1 3 0 5.5 0.2 5.5 0.2 0 2.5 -1.1 5.1 -2.5 4.8 -2.5 12.6 -3.2 18.4 -1.6 2.4 0.7 2.2 0.9 -4.5 7.4 -3.8 3.7 -7.7 6.9 -8.7 7.3 -1 0.3 -1.8 0.9 -1.8 1.4 0 2.6 9.4 -3.9 16.2 -11.4 4 -4.3 4.8 -4.7 4.8 -2.9 0 1.5 0.7 2.3 2.2 2.5 3.5 0.5 6.8 6.3 6.8 11.9 0 3.5 0.4 4.9 1.4 4.9 0.7 0 1.6 -0.9 1.9 -2 0.4 -1.6 1.4 -2 4.4 -2 2.8 0 4.2 -0.6 5.1 -2.1 1.1 -1.8 2.1 -2 6 -1.7 2.6 0.2 8.7 -0.1 13.6 -0.9 7.7 -1.1 9.4 -1.7 12.1 -4.3 2 -1.9 4.1 -3 6 -3 l2.9 0 -3.4 -3.5 c-2.5 -2.6 -4.2 -3.5 -6.7 -3.5 -2.9 0 -3.3 -0.3 -3.3 -2.5 0 -2.8 0.5 -3 3.6 -1.2 2.4 1.3 20.4 18.3 20.4 19.2 0 0.3 -0.6 0.5 -1.4 0.5 -0.8 0 -3.6 2 -6.2 4.3 -2.7 2.4 -5.9 4.9 -7.2 5.6 -3.9 2.1 -19.4 5.1 -26.5 5.1 -6.3 0 -6.8 0.2 -7.7 2.5 -0.8 2.1 -1.6 2.5 -4.7 2.5 l-3.8 0 4 2.4 c3.7 2.3 3.8 2.4 1.5 2.8 -1.7 0.3 -2 0.6 -1 1 0.8 0.3 3.8 1.3 6.5 2.3 8.1 2.9 11.4 2.9 20.1 0 8.3 -2.8 11.9 -4.7 19.6 -10.4 4.6 -3.4 5.4 -5.8 1.7 -4.8 -1.6 0.4 -1.4 -0.1 1 -3.1 1.6 -2.1 3.8 -4.6 5 -5.6 1.2 -1.1 2.1 -2.5 2.1 -3.3 0 -1.1 0.6 -1.1 3.6 0.2 4.2 1.7 4.4 1.8 4.4 0.7 0 -0.4 -1.5 -1.4 -3.2 -2.2 -2.9 -1.3 -3.1 -1.5 -1.1 -1.8 5.6 -0.8 1.4 -6.2 -4.8 -6.2 -2.2 0 -2.7 0.4 -2.2 1.6 1.2 3.1 -3 -0.2 -9.8 -7.8 -4.3 -4.8 -7.7 -7.6 -9.9 -8.3 -4 -1.2 -5 -3.2 -1.8 -3.7 1.5 -0.2 2.4 -1.1 2.6 -2.6 0.2 -1.2 1.2 -2.6 2.2 -3.2 1.2 -0.6 1.6 -1.7 1.3 -3 -0.3 -1.1 -0.2 -3.5 0.1 -5.3 0.6 -3.1 1.1 -3.5 5.9 -4.6 2.8 -0.7 7.7 -1.1 10.7 -0.9 l5.5 0.3 0.1 5.3 c0 2.9 0.6 5.8 1.2 6.4 0.7 0.7 1.2 3.3 1.2 5.9 0 6.9 1.7 7.7 12.6 6.3 5.3 -0.7 7.8 0.6 5.5 2.9 -1.4 1.4 -1.5 3 -0.1 2.2 1.6 -1 1.1 4.8 -0.5 6.9 -1.4 1.9 -2.1 1.2 -1.6 -1.6 0.3 -1.9 -1.6 -0.4 -4.3 3.3 -2.1 3 -2.5 4.4 -1.7 5.2 1.4 1.4 -2.4 5.7 -5.1 5.7 -1.2 0 -1.8 0.7 -1.8 2.1 0 3.1 -7.9 10.9 -11.6 11.3 -1.7 0.3 -5.3 2.1 -8 4.2 -5.9 4.5 -15.5 9 -23.2 10.9 -3.6 0.8 -4.7 1.4 -3 1.4 3.5 0.1 4.4 1.7 1.5 2.5 -4.5 1.2 -11.2 0.6 -14.4 -1.3 -1.7 -1.1 -4.8 -2.3 -6.7 -2.7 -5.4 -1 -5.8 -2.8 -0.5 -2 l4.4 0.7 -4 -1.9 c-2.2 -1.1 -4.9 -2.9 -5.9 -4.1 -1.2 -1.3 -2.2 -1.7 -2.6 -1.1 -0.4 0.7 -1.5 0.7 -3.1 0.2 -1.7 -0.7 -3.4 -0.5 -5.6 0.6 -1.8 0.9 -3.9 1.2 -5 0.7 -1.5 -0.6 -1.3 -0.9 1.4 -1.9 1.8 -0.6 3.8 -1.7 4.5 -2.3 1.7 -1.8 -0.3 -1.6 -2.6 0.2 -3.6 2.7 -7.2 1.9 -11.6 -2.9 -3 -3.2 -4.6 -4.2 -6.3 -3.9 -1.4 0.3 -2.9 -0.2 -3.6 -1.1 -1.2 -1.4 -1.7 -1.3 -4.6 1.3 -2.4 2.1 -4 2.7 -5.9 2.4 -1.4 -0.3 -2.6 -0.1 -2.6 0.5 0 0.6 1 0.8 2.3 0.5 1.7 -0.4 0.9 0.8 -3.2 5 -4.2 4.4 -5.8 5.4 -6.8 4.5 -1.1 -0.9 -1.1 -1.4 -0.1 -2.7 1.2 -1.4 -3.2 1.8 -11.5 8.6 -3.1 2.5 -2.4 3.2 0.7 0.8 1.1 -0.8 2.6 -1.5 3.3 -1.5 2.5 0 1.3 1.9 -3.2 5.2 -5.2 3.8 -5.5 4.8 -1.7 4.8 3.3 0.1 6.5 4 5.9 7.3 -0.3 1.5 -0.5 1.6 -0.6 0.5z"/>
  <path d="M266.6 237.6 c0.5 -1.3 -0.1 -1.6 -4.1 -1.6 -3.7 0 -6.7 -1 -13.8 -4.7 -5 -2.7 -10.9 -6.6 -13.1 -8.7 -2.4 -2.3 -4.9 -3.9 -6.1 -3.7 -1.3 0.1 -2.6 -0.9 -3.8 -2.8 -1.9 -3.3 -2.4 -8.6 -0.6 -7.5 0.8 0.5 0.8 0.1 0 -1.4 -0.6 -1.2 -0.7 -2.3 -0.3 -2.6 1.8 -1.1 18.8 -0.4 24.6 0.9 3.4 0.8 9 1.5 12.6 1.5 8.5 0.1 17.4 2.9 17.8 5.8 0.2 1.1 0.9 2.2 1.7 2.4 1 0.2 0.5 1.8 -2.1 5.8 -3.9 6.2 -4.9 6.9 -5.7 4 -0.4 -1.6 -1.3 -2 -4.9 -2 -2.4 0 -6.9 -0.4 -9.9 -0.9 -3 -0.5 -8.1 -1.2 -11.4 -1.6 -5.6 -0.5 -5.9 -0.5 -4 1 1.1 0.9 5.3 3.2 9.4 5.2 4.6 2.2 6.9 3.8 6.1 4.3 -1.7 1 -0.3 1.7 5.3 2.5 4.9 0.8 5.9 2.2 3.2 4.5 -1.3 1.1 -1.4 1 -0.9 -0.4z"/>
 </g>
 <g fill="#25313d">
  <path d="M132.5 292.3 c-4.9 -0.7 -12.5 -2.3 -16.7 -3.4 -6.1 -1.7 -7.8 -2.5 -7.8 -4 0 -1 -0.8 -2.3 -1.7 -2.8 -1.4 -0.8 -0.8 -1 2.9 -1.1 4.4 0 11.3 1.5 18.3 3.9 2.3 0.8 25.2 3.1 30.7 3.1 0.4 0 0.8 1.3 0.8 2.9 0 2.5 -0.4 2.9 -2.5 2.7 -1.4 0 -2.5 -0.4 -2.5 -0.8 0 -0.5 -0.7 -0.8 -1.5 -0.8 -0.8 0 -1.5 0.5 -1.5 1 0 0.6 -0.5 1 -1.1 1 -0.6 0 -0.8 -0.8 -0.5 -1.7 0.5 -1.6 0.4 -1.6 -0.6 -0.3 -1.7 1.9 -5.3 2 -16.3 0.3z"/>
  <path d="M201 285 c0 -0.6 -0.7 -1 -1.5 -1 -0.8 0 -1.5 -0.4 -1.5 -1 0 -0.5 0.9 -1 2 -1 1.3 0 2 -0.7 2 -2 0 -2 4.5 -5 7.4 -5 0.8 0 1.6 -0.5 1.8 -1.1 0.4 -1.3 11.8 -0.3 11.8 0.9 0 0.4 -0.9 1.3 -2 2 -1.2 0.7 -2 0.8 -2 0.2 0 -0.5 -0.7 -1 -1.6 -1 -1.4 0 -1.4 0.3 -0.4 1.5 0.7 0.8 1.1 1.5 0.8 1.5 -0.2 0 -4.1 1.6 -8.6 3.5 -4.5 1.9 -8.2 3 -8.2 2.5z"/>
  <path d="M66.7 264.3 c-3.5 -3.8 -3.4 -4.3 0.8 -4.3 3.6 0 3.9 0.5 2.6 4.8 l-0.6 2.3 -2.8 -2.8z"/>
  <path d="M59.1 257.3 c-0.6 -1 -1.1 -1.4 -1.1 -0.9 0 1.1 -4 -2.4 -4 -3.6 0 -0.4 1.6 -0.8 3.5 -0.8 3.3 0 3.5 0.2 3.5 3.5 0 3.9 -0.4 4.3 -1.9 1.8z"/>
  <path d="M129.3 242.3 c-2.9 -1.1 -1 -2 4.2 -1.9 3.8 0 5.5 0.4 5.5 1.3 0 1.3 -7 1.7 -9.7 0.6z"/>
  <path d="M133 238.8 c0 -0.6 -0.3 -0.8 -0.7 -0.5 -0.3 0.4 -1.2 -0.1 -2 -1.1 -0.9 -1.1 -1.2 -1.1 -0.7 -0.2 0.4 0.8 -0.3 0.5 -1.5 -0.7 -1.1 -1.2 -2.1 -2.5 -2.1 -2.8 0 -1.1 5.6 -0.4 7.4 1 1.8 1.4 1.8 1.5 0.2 1.5 -0.9 0 -1.4 0.5 -1.1 1 0.3 0.6 1.8 1 3.3 1 2.1 0 2.4 0.2 1.2 1 -2.1 1.3 -4 1.2 -4 -0.2z"/>
  <path d="M109.5 235 c-0.3 -0.5 0.1 -1 1 -1 0.9 0 1.3 -0.4 1 -1 -0.3 -0.6 0.1 -0.7 1 -0.4 2.1 0.9 5.1 -1.6 3.3 -2.7 -0.9 -0.6 -0.4 -0.9 1.5 -0.9 2 0 2.7 0.5 2.7 2 0 1.1 -0.5 2 -1.1 2 -0.6 0 -1.7 0.7 -2.5 1.5 -1.7 1.7 -6 2 -6.9 0.5z"/>
  <path d="M250.8 232.4 c-3.8 -1.9 -6.8 -3.7 -6.8 -3.9 0 -0.3 2.8 0.9 6.2 2.6 3.4 1.7 8.2 3.5 10.7 3.9 l4.6 0.8 -4 0 c-2.7 0.1 -6.2 -1 -10.7 -3.4z"/>
  <path d="M252.9 231.1 c-3.7 -1.5 -7.7 -3.5 -9 -4.5 -2.7 -1.9 -4.3 -2.1 -3.3 -0.4 0.5 0.7 0.3 0.8 -0.5 0.4 -0.7 -0.5 -1 -1.1 -0.7 -1.4 0.8 -0.7 -4.4 -6.2 -5.9 -6.2 -0.6 0 -1.1 -0.9 -1.1 -2 0 -3 2.3 -2.4 5.6 1.4 1.7 1.9 6.7 5.3 11.3 7.7 4.5 2.3 8.7 4.8 9.2 5.5 0.6 0.7 2.1 1.5 3.5 1.7 l2.5 0.4 -2.5 0.1 c-1.4 0.1 -5.5 -1.1 -9.1 -2.7z"/>
  <path d="M75.5 230 c1.6 -1.7 3.1 -2.6 3.4 -2.1 0.3 0.4 1.5 0.5 2.6 0 1.9 -0.7 1.8 -0.8 -0.4 -0.8 -2 -0.1 -2.1 -0.3 -1.1 -1.6 1.9 -2.3 4 -1.8 4 1 0 4 -2.9 6.5 -7.4 6.5 l-4 0 2.9 -3z"/>
  <path d="M105 232 c-1.1 -0.8 -0.7 -0.9 1.5 -0.4 3.7 0.8 4.5 1.4 1.9 1.4 -1 0 -2.6 -0.5 -3.4 -1z"/>
  <path d="M73 228.2 c0 -2.3 3 -5.2 5.3 -5.2 2.3 0 2.2 0.5 -1 4 -3 3.4 -4.3 3.8 -4.3 1.2z"/>
  <path d="M101.1 225.8 c-2 -2.7 -2.8 -4.5 -2.1 -5.2 1.4 -1.4 5 2.2 5 5.1 0 1.4 0.6 2.3 1.6 2.3 0.8 0 1.2 0.5 0.9 1 -1.1 1.8 -2.3 1.1 -5.4 -3.2z"/>
  <path d="M99.1 225.6 c-0.7 -0.8 -2.1 -1.2 -3.1 -0.9 -1.6 0.4 -2 0 -2 -2.2 l0 -2.7 3.5 3.3 c1.9 1.9 3.5 3.5 3.5 3.6 0 0.7 -0.8 0.2 -1.9 -1.1z"/>
  <path d="M276 222.8 c0 -0.9 -0.6 -1.8 -1.2 -2.1 -0.7 -0.2 -1 -0.8 -0.6 -1.2 0.4 -0.4 1.5 0 2.4 0.9 1.2 1.3 1.4 2 0.5 2.9 -0.8 0.8 -1.1 0.7 -1.1 -0.5z"/>
  <path d="M85.9 220.7 c0.6 -0.8 0.9 -1.6 0.6 -1.9 -0.3 -0.3 0.4 -1.3 1.5 -2.3 2 -1.8 2.1 -1.8 3.4 0.1 0.8 1 1 2.1 0.5 2.2 -0.5 0.2 -0.9 1 -0.9 1.8 0 0.9 -1.1 1.4 -3.1 1.4 -2.5 0 -2.9 -0.3 -2 -1.3z"/>
  <path d="M117.3 220.4 c-0.2 -0.6 0.1 -2.2 0.6 -3.7 1.2 -3.1 0.7 -6.1 -1.4 -9.4 -2.2 -3.3 -3.7 -3.7 -8 -1.9 -2.1 0.9 -3.9 1.6 -4.2 1.6 -0.2 0 1.7 -2.4 4.3 -5.4 7.7 -9 27.2 -17.3 34.6 -14.7 2.8 1 3.5 0.8 5.8 -1.4 l2.6 -2.5 2.2 2 c1.2 1.2 2.7 1.8 3.2 1.5 0.6 -0.4 2.7 0.7 4.7 2.4 2.1 1.7 4.2 3.1 4.8 3.1 2 0 14.8 13.7 13.5 14.5 -0.6 0.4 -1.7 0.2 -2.3 -0.4 -1.9 -1.9 -5.2 -1.2 -7.8 1.5 -2.9 3.2 -5.8 4.4 -11.9 4.9 -2.5 0.3 -5.5 0.7 -6.7 1 -1.3 0.3 -3.2 0.7 -4.4 1 -1.1 0.2 -3.2 -0.1 -4.7 -0.6 -2.2 -0.9 -2.9 -0.7 -4.3 1 -1.2 1.4 -2.9 2.1 -5.4 2.1 -2.8 0 -3.8 0.5 -4.2 2 -0.3 1.1 -1.3 2.1 -2.2 2.2 -5.2 0.4 -8.4 0.2 -8.8 -0.8z m1.7 -22.2 c0 -1.3 -1.2 -2.2 -2.2 -1.6 -1 0.6 -0.1 2.4 1.3 2.4 0.5 0 0.9 -0.4 0.9 -0.8z"/>
  <path d="M24.8 216.5 c-1 -1.3 -1.8 -3.1 -1.8 -4.1 0 -1.4 0.7 -1.6 4 -1.1 2.3 0.3 3.8 0.1 3.4 -0.4 -0.3 -0.5 0 -0.9 0.6 -0.9 0.7 0 3.2 -1.8 5.7 -4 5.1 -4.5 8.1 -5.4 6.3 -1.9 -0.7 1.2 -0.9 3.7 -0.5 6.1 l0.7 4.1 -6.6 -0.8 c-6.2 -0.6 -6.6 -0.5 -6.6 1.4 0 1.1 -0.8 2.4 -1.7 3 -1.4 0.7 -2.2 0.3 -3.5 -1.4z"/>
  <path d="M228 216.5 c0 -1.4 0.3 -2.5 0.8 -2.5 1.1 0 3.2 3.7 2.5 4.4 -1.5 1.5 -3.3 0.4 -3.3 -1.9z"/>
  <path d="M278.8 218.3 c-0.9 -0.2 -1.8 -1.4 -2 -2.5 -0.4 -2.9 -9.4 -5.8 -17.3 -5.7 -3.3 0.1 -8.9 -0.5 -12.5 -1.3 -8.1 -1.8 -18.8 -1.7 -20 0.3 -0.6 0.8 -0.4 1.6 0.3 2.1 0.7 0.5 0.1 0.8 -1.5 0.8 -2.3 0 -3.2 -1 -6.7 -7.2 -3.3 -6.1 -4.1 -7 -4.7 -5.3 -0.4 1.1 -1.4 2.6 -2.2 3.4 -0.7 0.8 -2 2.4 -2.9 3.7 -0.8 1.3 -1.9 2.4 -2.5 2.4 -0.5 0 0.2 -1.2 1.6 -2.7 2.5 -2.7 3.2 -7.2 1.1 -7.4 -0.5 0 0.1 -0.5 1.5 -1 1.4 -0.6 2 -1.3 1.4 -1.7 -0.6 -0.4 -1.3 -1.5 -1.7 -2.5 -0.5 -1.4 -1.2 -1.7 -2.9 -1 -4 1.4 -12.6 0.8 -14.7 -1.1 -1.6 -1.5 -1.9 -2.8 -1.5 -9.2 0.3 -4.9 0 -7.4 -0.7 -7.4 -0.6 0 -0.8 -0.9 -0.4 -2 0.9 -2.8 -1.1 -5 -4.6 -5 -5 0 -11.7 2.3 -12.2 4.1 -0.4 1.5 -0.1 1.6 2 0.8 1.3 -0.5 3.6 -0.9 4.9 -0.9 3.8 0 2.9 4.1 -1.1 5.5 -1.6 0.5 -3.6 1.6 -4.3 2.3 -0.8 0.6 -2.3 1.7 -3.4 2.3 -1.1 0.6 -1.7 1.6 -1.5 2.3 0.3 0.6 -0.1 1.9 -0.7 2.9 -2 2.7 -6.6 0.8 -10.2 -4.4 -5.1 -7.1 -5.2 -8.5 -0.7 -9.9 7.5 -2.5 11.9 -5.4 20.6 -13.6 6.8 -6.5 9.5 -8.4 11.6 -8.4 4.7 0 5.4 1.8 3.5 9.1 -1.8 6.9 -2.3 13.4 -1.2 16.2 0.6 1.3 1.9 1.7 5.3 1.7 4.9 0 6.7 -1.8 4.5 -4.5 -3.2 -3.9 2.1 -2.2 6.3 1.9 1.4 1.5 1.5 1.3 1 -1.8 -0.5 -3 -0.2 -3.4 2.1 -4 2.2 -0.5 3.2 0 5.6 2.8 3.9 4.3 8.5 6.4 11.1 4.8 1.4 -0.9 1.7 -0.9 1.3 0.1 -0.4 1.1 6.4 7.7 7.9 7.7 0.2 0 1.5 -0.9 2.8 -2.1 1.7 -1.4 3 -1.8 4.9 -1.3 1.4 0.4 3.4 0.6 4.4 0.6 1.1 -0.1 3.9 1.7 6.4 3.8 2.5 2.2 6.1 4.4 8.1 5 4.4 1.2 5.8 2.2 10 7.7 1.8 2.3 5 5.2 7.2 6.5 2.1 1.2 3.9 2.6 3.9 3 0 1 -4.9 10.9 -5.3 10.7 -0.1 -0.1 -1 -0.3 -1.9 -0.6z m-56.5 -16.3 c-5.7 -10.4 -6.8 -11.7 -8.7 -10.1 -0.9 0.7 -1.6 1.8 -1.6 2.4 0 0.5 0.9 0.2 2 -0.8 1.2 -1.1 2 -1.3 2 -0.6 0 0.6 0.8 2.4 1.9 3.9 1 1.5 3 4.8 4.5 7.5 1.5 2.6 2.9 4.7 3.2 4.7 0.3 0 -1.2 -3.1 -3.3 -7z m46.7 -5.5 c0 -2.6 -3.2 -5.1 -5.1 -3.9 -0.7 0.4 0 1.7 1.7 3.5 1.5 1.6 2.9 2.9 3.1 2.9 0.2 0 0.3 -1.1 0.3 -2.5z"/>
  <path d="M87 213 c0 -0.5 1.2 -1 2.6 -1 1.4 0 2.3 0.4 1.9 1 -0.3 0.6 -1.5 1 -2.6 1 -1 0 -1.9 -0.4 -1.9 -1z"/>
  <path d="M78.3 207.3 c0.3 -2.1 1.1 -6.7 1.6 -10.2 0.7 -4.7 1.7 -7.1 3.7 -9.2 2.3 -2.4 2.5 -2.9 1.1 -3.5 -2.7 -1 -5.2 0 -5.5 2.4 -0.3 2.1 -1.2 2.6 -4 2.3 -0.7 -0.1 -2.2 0.5 -3.4 1.4 -4.8 3.3 -3.6 1.2 3 -5.4 6.8 -6.8 11.7 -13.8 16.3 -23.3 1.3 -2.7 2.7 -4.8 3.2 -4.8 0.4 0 0.6 -0.4 0.3 -0.9 -0.4 -0.5 0.3 -0.7 1.5 -0.4 3.4 0.9 3.4 3.1 -0.1 8 -2.8 3.8 -3.1 4.9 -2.2 6.4 1 1.6 0.6 2.7 -2.3 6.8 -3.3 4.6 -3.5 5.2 -2.9 10.5 0.9 7.5 2.3 8.6 7.7 5.6 6.7 -3.7 10.7 -7 10.7 -8.9 0 -0.9 -1.3 -3.8 -3 -6.4 -3.1 -5 -3.1 -5.4 0.2 -3.6 2.7 1.5 6.4 0.4 7.1 -2.2 0.4 -1.6 1.1 -1.9 2.6 -1.4 1.3 0.4 3.1 -0.1 4.8 -1.3 1.5 -1.1 4.6 -2.3 6.9 -2.6 3.7 -0.5 4.4 -0.2 7.4 2.9 l3.4 3.5 -4.4 4.5 c-2.4 2.5 -7.6 6.8 -11.5 9.7 -3.8 2.9 -8.8 7.3 -11 9.8 -2.2 2.6 -4.3 4.3 -4.6 3.8 -0.3 -0.5 -2.2 -1.1 -4.2 -1.5 -4.6 -0.7 -10.9 2.2 -16.5 7.7 -5.2 5.1 -6.6 5.2 -5.9 0.3z m6.7 -15.8 c0 -0.8 -0.4 -1.5 -1 -1.5 -0.5 0 -1 0.7 -1 1.5 0 0.8 0.5 1.5 1 1.5 0.6 0 1 -0.7 1 -1.5z"/>
  <path d="M179.4 209.2 c0.9 -1.5 4.8 -2.3 4.3 -0.9 -0.2 0.7 -1.4 1.4 -2.6 1.5 -1.3 0.2 -2.1 -0.1 -1.7 -0.6z"/>
  <path d="M202.8 206.3 c1.1 -1.6 3 -3.7 4.3 -4.8 1.9 -1.7 1.8 -1.4 -0.5 1.7 -1.5 2 -2.5 4.2 -2.1 4.8 0.3 0.6 -0.3 1 -1.5 1 l-2.1 0 1.9 -2.7z"/>
  <path d="M180 201.3 c-1.9 -2.1 -2.6 -3 -1.4 -2 1.1 0.9 2.3 1.5 2.6 1.2 0.8 -0.8 3 2.3 2.6 3.5 -0.2 0.6 -1.9 -0.6 -3.8 -2.7z"/>
  <path d="M50.3 203.2 c-3.3 -0.5 -2.8 -1.8 0.8 -2.6 4.2 -0.8 4.9 -0.8 4.9 0.4 0 1.4 -3.2 2.7 -5.7 2.2z"/>
  <path d="M63 195.5 c0.7 -0.8 1.9 -1.5 2.7 -1.5 1.3 0 1.3 0.3 0.3 1.5 -0.7 0.8 -1.9 1.5 -2.7 1.5 -1.3 0 -1.3 -0.3 -0.3 -1.5z"/>
  <path d="M132.5 180 c2.7 -2.7 5.1 -5 5.4 -5 0.3 0 -1.7 2.3 -4.4 5 -2.7 2.8 -5.1 5 -5.4 5 -0.3 0 1.7 -2.2 4.4 -5z"/>
 </g>
 <g fill="#0f2935">
  <path d="M156.3 292.6 c-0.7 -1.2 -3.2 -1.7 -10.8 -2.2 -5.5 -0.3 -11.6 -0.7 -13.5 -0.8 -1.9 -0.1 -3.8 0.2 -4.2 0.8 -0.5 0.7 -0.8 0.7 -0.8 -0.1 0 -1.6 -4.8 -3.6 -12.6 -5.3 -3.4 -0.8 -7 -2 -8 -2.7 -1.8 -1.3 -1.8 -1.5 0.6 -3.3 1.3 -1 2.8 -1.6 3.2 -1.4 0.4 0.3 0.8 0 0.8 -0.6 0 -0.6 0.4 -0.9 0.8 -0.6 0.5 0.3 2.1 -0.5 3.7 -1.8 2.2 -1.8 2.6 -2.7 2 -4.2 -0.5 -1 -0.9 -2.6 -1 -3.4 -0.1 -1.8 1.4 -4.1 2.4 -3.6 0.4 0.3 0.8 -0.5 0.8 -1.6 0.2 -2.2 2.1 -4 3.4 -3.2 0.4 0.2 0.5 1.4 0.3 2.7 -0.2 1.2 -0.1 1.6 0.2 0.7 0.6 -1.3 3.8 -4.2 6.7 -6.1 0.5 -0.4 0.4 -1.6 -0.3 -3 -1.7 -3.3 -1.6 -3.2 -3.9 -1.8 -1.1 0.7 -2.2 1.1 -2.5 0.9 -0.5 -0.6 -0.9 -3.8 -0.7 -6.7 0.1 -2.9 5.3 -5.6 9 -4.8 1.5 0.3 4 0.1 5.4 -0.4 1.7 -0.7 2.7 -0.7 2.7 -0.1 0 1.7 5.9 4 10.4 4 4.5 0 6.8 1.3 4.1 2.4 -2.3 0.8 -1.8 3.6 0.6 3.6 1.8 0 2 0.4 1.4 2.7 -0.9 3.7 -1.2 3.9 -3.5 2.5 -2.6 -1.6 -4 -1.5 -4 0.2 0 0.7 -1 2 -2.2 2.9 -1.9 1.2 -2.1 1.8 -1.2 3.4 1.5 2.5 3.8 2.7 5.9 0.7 1.7 -1.7 1.8 -1.7 3.1 0.1 0.8 1 1.4 2.2 1.4 2.7 0 0.4 0.7 0.8 1.5 0.8 2.1 0 3 2.7 1.5 4.5 -0.9 1 -0.9 1.5 -0.1 1.5 0.6 0 1.1 -0.4 1.1 -0.9 0 -1 5 -2.5 5.7 -1.7 0.6 0.6 -4.6 5.6 -5.9 5.6 -0.5 0 -0.6 0.5 -0.3 1 1.1 1.7 5.4 1.1 7.5 -1 1.1 -1.1 2.3 -3.4 2.7 -5.1 0.3 -1.6 1.8 -3.8 3.4 -4.9 1.5 -1.1 3.2 -3.5 3.8 -5.3 0.6 -1.8 3.4 -5.3 6.1 -7.7 2.8 -2.4 5 -5.3 5 -6.3 0 -1 0.4 -1.6 0.9 -1.3 0.5 0.3 1.4 -0.1 2.1 -0.9 0.7 -0.8 2.3 -1.5 3.6 -1.5 1.5 0 2.4 -0.6 2.4 -1.6 0 -0.9 0.9 -2.7 2 -4.1 2.6 -3.4 2.5 -5.6 -0.4 -9 -2.3 -2.6 -2.5 -2.7 -4.3 -1.1 -1.8 1.6 -9.3 2.2 -9.3 0.6 0 -0.4 2.3 -3.3 5.1 -6.4 2.8 -3.1 4.8 -5.8 4.6 -6.1 -0.5 -0.4 -8.3 7.5 -9.9 10.1 -0.5 0.8 -1 0.8 -1.8 0 -0.9 -0.9 0.1 -2.6 3.7 -6.6 3.9 -4.3 5.4 -5.3 6.9 -4.7 2.7 1.1 3.4 1 3.4 -0.1 0 -0.5 -0.7 -1 -1.5 -1 -1.2 0 -0.8 -1.2 1.7 -4.7 2.5 -3.7 3.3 -4.4 3.6 -3 0.2 1 -0.3 2.6 -1.2 3.6 -0.9 1 -1.6 2.6 -1.6 3.7 0 1.3 0.7 0.8 2.6 -1.9 2.3 -3.4 2.7 -3.7 3.8 -2.2 1.1 1.6 1.4 1.6 2.8 0.2 1.4 -1.5 1.6 -1.3 2.2 1.5 0.3 1.7 0.6 5.6 0.6 8.7 0 4.6 -0.4 5.9 -2 6.9 -1.2 0.7 -2.6 1 -3.2 0.6 -0.6 -0.4 -0.9 -0.1 -0.6 0.7 0.3 0.8 0.1 2.2 -0.4 3.2 -0.6 1.2 -0.5 1.7 0.7 1.7 0.8 0 1.5 0.4 1.5 1 0 0.5 0.7 0.7 1.5 0.4 0.8 -0.4 2.2 -0.1 3 0.6 1.3 1.1 1.5 0.8 1.5 -1.6 0 -2.6 0.1 -2.7 1.6 -1.2 2 2 3 10.8 1.6 13.3 -0.9 1.7 -1 1.6 -1.7 -0.5 -0.7 -2.3 -0.8 -2.2 -2.1 0.9 -2.3 5.5 -1.8 9.7 1.4 12 1.9 1.3 4.1 4.9 6.6 10.7 3.9 9.4 3.8 10.3 -1.8 9.9 -1.7 -0.1 -3.4 0.1 -3.7 0.6 -0.3 0.5 -1.5 1.1 -2.7 1.4 -3.6 0.7 -6.2 2.5 -5.6 3.9 0.6 1.6 -2.5 2.9 -4.9 2 -0.9 -0.3 -2.5 0.4 -3.8 1.7 -1.9 1.9 -2.3 2 -3.1 0.5 -1.3 -2.3 -2.5 -2 -5.4 1.1 -2.1 2.3 -2.8 2.5 -5.7 1.7 -1.7 -0.6 -5.3 -0.8 -7.9 -0.6 -3.9 0.3 -4.8 0.8 -4.8 2.3 0 1.5 -0.7 1.9 -3.4 1.9 -1.8 0 -4.7 0.3 -6.4 0.6 -2.2 0.4 -3.2 0.2 -3.9 -1z m16.7 -9.5 c0 -0.5 0.8 -1.1 1.9 -1.4 1.1 -0.3 2 -1.6 2.3 -3.4 0.4 -3 0.3 -3 -3.7 -2.9 -6.3 0.3 -6.9 1 -5.1 6.4 0.7 2.1 4.6 3.2 4.6 1.3z m35 -61.6 c0 -0.9 -0.6 -1.2 -1.5 -0.9 -0.8 0.4 -1.5 1 -1.5 1.5 0 0.5 0.7 0.9 1.5 0.9 0.8 0 1.5 -0.7 1.5 -1.5z"/>
  <path d="M230.6 269.5 c-0.3 -0.9 0 -1.5 0.9 -1.5 1.6 0 2 1.6 0.6 2.4 -0.5 0.3 -1.1 -0.1 -1.5 -0.9z"/>
  <path d="M68 264.5 c0 -0.8 -0.5 -1.4 -1.2 -1.2 -0.7 0.1 -1.7 -0.8 -2.3 -2.1 -0.5 -1.2 -1.6 -2 -2.2 -1.7 -0.7 0.2 -2 -0.7 -2.9 -2 -0.9 -1.4 -2 -2.3 -2.4 -2 -1.2 0.7 -5.1 -3.5 -4.8 -5.2 0.3 -1.5 9.3 -7.2 11.6 -7.3 1.7 0 1.5 2 -0.4 4.1 -1.7 1.9 -1.1 3.9 1.2 3.9 0.8 0 1.4 0.7 1.4 1.5 0 1.2 3.9 4.2 4.4 3.3 0.1 -0.2 1.2 -2.7 2.4 -5.7 l2.2 -5.4 -2.4 -4.3 -2.3 -4.2 2.3 -2.9 c1.2 -1.6 4.1 -3.5 6.3 -4.3 3.7 -1.2 3.9 -1.4 2.3 -2.6 -1.6 -1.3 -1.5 -1.4 0.5 -2 2.1 -0.6 5.7 -4.9 5.8 -6.9 0 -1.6 3.1 -1.7 4.4 -0.1 1.8 2.1 0.5 3.6 -3 3.6 -2.2 0 -2.9 0.5 -2.9 1.9 0 1 0.9 2.1 2 2.4 1.2 0.3 2 1.4 2 2.7 0 1.5 -0.5 2 -1.4 1.7 -0.8 -0.3 -1.7 0.1 -2 0.9 -0.3 0.8 -0.2 1.3 0.2 1 2.1 -1.2 3.1 1.1 2.2 4.9 -0.5 2.2 -1 5.4 -1 7.1 0 1.8 -0.8 3.9 -2.1 4.9 -2 1.9 -2 1.9 -1 -0.9 0.6 -1.5 1.1 -3.7 1 -4.9 0 -2.1 -0.1 -2.1 -0.9 -0.2 -0.5 1.1 -2.9 4.3 -5.5 7 -2.5 2.8 -5.8 7.6 -7.3 10.7 -2.7 5.6 -4.2 7.2 -4.2 4.3z m10 -22.9 c0 -1.6 -1.8 -3.1 -2.7 -2.2 -0.8 0.8 0.5 3.6 1.7 3.6 0.5 0 1 -0.6 1 -1.4z"/>
  <path d="M132 238 c-1.1 -0.7 -0.5 -0.8 2 -0.4 4.3 0.8 5.1 1.4 1.9 1.4 -1.3 0 -3.1 -0.5 -3.9 -1z"/>
  <path d="M68 233.4 c1.6 -4.1 3.9 -6.4 6.6 -6.4 1.7 0 2.3 -0.6 2.6 -2.7 0.2 -2.3 0.9 -2.9 3.2 -3.1 l2.9 -0.4 -3.9 4 c-2.1 2.1 -5.8 5.6 -8.2 7.7 -4.3 3.8 -4.3 3.8 -3.2 0.9z"/>
 </g>
 <g fill="#37444f">
  <path d="M63.4 238.8 c8.6 -7.8 3 -9.1 -10.7 -2.4 -11.9 5.7 -10.2 6.2 -19.1 -5.6 l-2.7 -3.7 2.2 -1.1 c1.6 -0.9 3.6 -0.9 7.8 -0.1 6.2 1.2 11.4 0.2 20.6 -3.9 7.9 -3.5 11.7 -4.2 13.7 -2.3 1.5 1.3 2.3 1.4 4.4 0.5 6.4 -3 5.4 -0.7 -3.6 7.9 -5.2 4.9 -11.3 10.4 -13.5 12.1 -3 2.3 -2.8 2 0.9 -1.4z"/>
  <path d="M130 236.8 c-1.9 -1.2 -3.8 -2.7 -4.2 -3.3 -0.5 -0.7 -1.1 -0.6 -1.6 0.3 -1.2 1.8 -4.2 0.4 -4.2 -2.1 0 -1.6 0.3 -1.8 1.2 -0.9 1.7 1.7 2.6 1.5 2.4 -0.5 -0.1 -1.5 0.8 -1.9 4.7 -2.1 4 -0.3 4.9 -0.7 5.7 -2.8 0.9 -2.2 1.5 -2.4 7.2 -2.5 3.5 0 7.2 -0.2 8.3 -0.4 1.1 -0.2 3.6 -0.7 5.5 -1 8.9 -1.5 14.3 -3.7 18.4 -7.5 2.3 -2.2 5.5 -4.6 7 -5.4 2.7 -1.3 3.2 -1.2 7.6 1.5 2.6 1.6 5.3 2.9 5.9 2.9 0.9 0 0.9 0.4 -0.1 1.3 -0.7 0.8 -3.1 3.4 -5.3 5.8 -2.6 2.7 -5 4.4 -6.5 4.5 -1.4 0.1 -6.1 1.8 -10.6 3.8 -7.8 3.5 -17.2 5.5 -33.8 7.2 -5.7 0.6 -6.5 1.8 -1.6 2.7 l2.5 0.4 -2.5 0.1 c-1.4 0.1 -4.1 -0.8 -6 -2z"/>
  <path d="M253 231.1 c-7.7 -3.3 -11.5 -5.5 -16.2 -9.7 -3.6 -3.2 -5.5 -6.4 -3.7 -6.4 1 0 15.1 2 27.8 3.9 3 0.5 7.5 0.7 10 0.6 5.5 -0.4 7.6 1.3 6.1 4.7 -1.4 3.1 -6 9.3 -6 8.1 0 -1.3 -10 -2.4 -12 -1.3 -1.6 0.9 -1 1.3 3.5 2.3 1.6 0.4 1.5 0.5 -0.5 0.6 -1.4 0 -5.4 -1.2 -9 -2.8z"/>
  <path d="M101.1 225.8 c-3.3 -4.5 -2.9 -6.8 0.9 -4.8 1.2 0.6 3.2 0.9 4.4 0.6 1.1 -0.3 2.7 -0.1 3.5 0.3 1.1 0.7 0.8 1.6 -1.4 4.5 -1.5 2 -3.1 3.6 -3.5 3.6 -0.5 0 -2.2 -1.9 -3.9 -4.2z"/>
  <path d="M84.2 222.9 c2.6 -3.3 3.4 -3.8 3.7 -2.3 0.2 1 -0.8 2.8 -2.3 4.1 -4.3 3.6 -5 2.7 -1.4 -1.8z"/>
  <path d="M95 222.8 c0 -1.9 0.2 -2 1 -0.8 1.3 1.9 1.3 3 0 3 -0.5 0 -1 -1 -1 -2.2z"/>
  <path d="M229 216.3 c0 -2.2 0.2 -2.5 1 -1.3 1.3 2 1.3 4 0 4 -0.5 0 -1 -1.2 -1 -2.7z"/>
  <path d="M87.2 212.8 c0.6 -1.7 6.3 -4.7 8.7 -4.5 1.2 0.1 2.1 0.2 2.1 0.4 0 0.2 -1.8 1.4 -4 2.8 -4.2 2.7 -7.4 3.3 -6.8 1.3z"/>
  <path d="M197.1 213.3 c0 -0.7 -0.6 -1.3 -1.2 -1.3 -1.8 0 -14.2 -8.5 -16.9 -11.6 -1.7 -2 -1.9 -2.4 -0.4 -1.1 1.1 0.9 2.3 1.5 2.6 1.2 1.2 -1.3 12.3 -1.2 13.8 0 0.8 0.7 2.4 1.5 3.5 1.7 2.5 0.4 3.1 3.4 1.2 5.6 -0.8 0.9 -1.7 2.8 -2 4.2 -0.2 1.4 -0.5 1.9 -0.6 1.3z"/>
 </g>
 <g fill="#020f1f">
  <path d="M91 255.5 c0 -1.6 4.2 -3.1 5.9 -2.1 0.6 0.4 0.8 1.3 0.4 2.1 -0.7 2 -6.3 2 -6.3 0z"/>
  <path d="M84.5 249.8 c0.4 -1.8 0.9 -6.3 0.9 -10.1 0.3 -9.7 1.3 -10.1 8.5 -3.3 5.6 5.4 10 12.1 8.7 13.3 -0.3 0.4 -1.7 -0.6 -3 -2 -3.5 -3.8 -5 -3.5 -4.3 0.8 0.3 1.9 0.3 3.5 -0.1 3.5 -1.2 -0.1 -3.9 -2.5 -4.4 -4 -0.3 -1 -1 -0.4 -2.3 1.8 -2.6 4.4 -5 4.3 -4 0z"/>
  <path d="M219.7 247.8 c-5.2 -1.4 -6.7 -4.2 -7.3 -13.4 -0.6 -8 -1.5 -9.8 -4.6 -9 -1.1 0.2 -1.8 -0.2 -1.8 -1 0 -0.8 0.4 -1.4 0.9 -1.4 0.9 0 0.7 -9.8 -0.3 -10.7 -1.2 -1.3 -0.5 -3.5 1.9 -6.1 1.4 -1.5 2.4 -3.5 2.1 -4.4 -0.2 -0.9 0.3 -2.6 1.1 -3.7 0.8 -1.2 1.1 -2.1 0.7 -2.1 -0.4 0 0.1 -0.9 1.1 -2 2.1 -2.3 1.2 -3.2 7.4 8 1.9 3.4 4.1 6.4 4.8 6.7 0.7 0.3 1 0.9 0.7 1.4 -0.3 0.5 0 0.9 0.5 0.9 0.6 0 1.1 0.5 1.1 1.1 0 0.6 0.7 1.7 1.5 2.5 4 4.1 -0.2 6 -5 2.2 l-2.7 -2.1 0.7 2.4 c0.4 1.3 1 3 1.2 3.6 0.6 1.6 -4.1 3.5 -6.3 2.6 -2.5 -1 -0.2 2.9 3.6 5.8 4.4 3.4 12.1 12.9 11.4 14.1 -0.3 0.5 -1.9 0.6 -3.4 0.3 -2.5 -0.6 -2.9 -0.3 -3.2 2.1 -0.4 3.2 -1.1 3.5 -6.1 2.2z"/>
  <path d="M110.1 235.6 c-1 -1.2 -0.6 -1.5 1.9 -2.1 1.7 -0.4 3.6 -1.5 4.3 -2.6 1.5 -2.4 2.6 -2.4 5.5 0 2.7 2.4 2.9 4.5 0.2 3.6 -1 -0.3 -3.3 0.1 -4.9 0.9 -3.7 2 -5.5 2 -7 0.2z"/>
  <path d="M88.1 224.4 c-2.6 -3.3 -2.6 -3.6 0.3 -6.3 l2.3 -2.2 3.2 3.6 c3.7 4.3 3.9 5.5 0.8 5.5 -1.3 0 -2.8 0.5 -3.4 1.1 -0.7 0.7 -1.7 0.3 -3.2 -1.7z"/>
  <path d="M200.5 148.9 c-1.2 -1.9 0.5 -2.3 2.2 -0.6 1.6 1.6 1.6 1.7 0.1 1.7 -0.9 0 -2 -0.5 -2.3 -1.1z"/>
  <path d="M107.3 133.4 c-0.3 -0.8 -1.1 -1.3 -1.8 -1 -1 0.3 -1 -0.3 -0.2 -3 0.9 -3.1 1.8 -3.9 1.9 -1.7 0 0.4 0.7 1.7 1.4 2.8 0.8 1.1 1.4 2.5 1.4 3.2 0 1.8 -1.9 1.6 -2.7 -0.3z"/>
 </g>
 <g fill="#f55034">
  <path d="M91 255.5 c0 -1.7 4.7 -3.2 6 -1.9 0.5 0.5 0.5 1.5 0 2.4 -0.8 1.3 -1 1.2 -1 -0.3 0 -1.2 -0.6 -1.7 -1.7 -1.5 -1 0.2 -1.7 1 -1.5 1.6 0.1 0.7 -0.2 1.2 -0.8 1.2 -0.5 0 -1 -0.7 -1 -1.5z"/>
  <path d="M217 253.5 c0 -0.9 0.5 -1.5 1.1 -1.3 0.6 0.2 1.1 0.8 1.1 1.3 0 0.5 -0.5 1.1 -1.1 1.3 -0.6 0.2 -1.1 -0.4 -1.1 -1.3z"/>
  <path d="M85 253 c-0.9 -0.5 -1 -1.6 -0.5 -3.6 0.5 -1.6 0.9 -5.9 1 -9.7 0.2 -9.8 1.2 -10.2 8.7 -2.7 6.2 6.2 6.2 6.3 0.6 1.2 -6.3 -5.7 -7.8 -6.3 -7.9 -2.9 0 1.2 -0.2 5 -0.3 8.5 -0.2 3.4 0 6.2 0.5 6.2 0.5 0 0.9 -0.6 0.9 -1.4 0 -2.7 2.2 -2.9 4.2 -0.5 1.9 2.4 2 2.4 1.5 0.2 -0.3 -1.2 0 -2.7 0.7 -3.2 0.8 -0.7 1.1 0.2 1.1 3 0.1 2.1 -0.1 3.9 -0.5 3.9 -1.3 -0.1 -4 -2.8 -4 -4.1 0 -1.7 -1.4 -0.3 -3.3 3.3 -0.9 1.8 -1.8 2.4 -2.7 1.8z"/>
  <path d="M99.9 247.9 c-0.9 -1.7 -0.8 -2 0.2 -1.4 0.9 0.6 1 0.3 0.5 -1.1 -0.5 -1.2 -0.4 -1.5 0.2 -0.9 0.5 0.6 1.3 2 1.7 3.3 0.8 2.8 -1 2.9 -2.6 0.1z"/>
  <path d="M217.3 247 c-3.3 -1.3 -4.4 -4.3 -4.8 -12.8 l-0.3 -7.7 1.2 8.7 c0.6 4.8 1.5 9.1 2 9.5 0.4 0.4 2.2 1.3 3.9 2 1.8 0.6 2.5 1.2 1.7 1.2 -0.8 0 -2.5 -0.4 -3.7 -0.9z"/>
  <path d="M228.5 243 c-0.3 -0.6 0.1 -0.7 0.9 -0.4 2.1 0.8 2 -1.4 -0.1 -4.1 -1 -1.1 -0.5 -0.8 1 0.8 2.7 2.8 2.8 4.7 0.2 4.7 -0.8 0 -1.7 -0.4 -2 -1z"/>
  <path d="M110 235.5 c-0.9 -1 -0.9 -1.5 -0.1 -1.5 0.6 0 1.1 0.5 1.1 1.1 0 0.8 1.1 0.9 3.3 0.5 2.3 -0.4 2.8 -0.3 1.7 0.4 -2.2 1.4 -4.6 1.2 -6 -0.5z"/>
  <path d="M118.7 233.8 c0.6 -1.1 5.3 -1 5.3 0.1 0 0.4 -1.3 0.8 -2.9 0.7 -1.6 -0.1 -2.7 -0.4 -2.4 -0.8z"/>
  <path d="M202.5 234.1 c-0.8 -1.5 0.3 -3.1 2.1 -3.1 0.9 0 1.4 0.7 1.2 1.7 -0.4 2 -2.4 2.8 -3.3 1.4z"/>
  <path d="M84.8 228.2 l-3.8 -1.7 5.1 -5.5 c2.8 -3 4.6 -4.8 4 -3.9 -1.6 2.3 2.3 7.2 5 6.4 1 -0.4 1.9 -0.2 1.9 0.4 0 0.5 -1.2 1.1 -2.7 1.3 -2.2 0.2 -2.8 0.8 -2.6 2.6 0.3 2.7 -1.6 2.8 -6.9 0.4z"/>
  <path d="M204.3 224.7 c-0.3 -0.4 0.4 -1.1 1.5 -1.3 1.6 -0.5 1.9 -1.3 1.6 -5.6 -0.1 -2.7 -0.5 -5.2 -0.8 -5.5 -1.2 -1.3 -0.5 -3.5 1.9 -6.1 1.5 -1.5 2.4 -3.5 2.1 -4.4 -0.5 -2 1 -2.5 1.8 -0.5 0.3 0.9 0.8 0.7 1.9 -0.5 2.2 -2.8 5.2 -1.8 7.6 2.7 1.2 2.2 1.6 3.4 1 2.8 -2.1 -2.1 -2.7 -1.5 -3.4 2.7 -0.7 4.3 -2.4 5.3 -3.2 1.9 -0.4 -1.4 -0.8 -1.7 -1.3 -0.9 -0.5 0.8 -1 0.1 -1.5 -1.9 -0.8 -3.8 -3.1 -4 -4.8 -0.4 -0.9 2 -0.9 2.7 0 3 0.8 0.3 0.9 1.2 0.3 2.8 -1.1 2.9 -0.2 9.7 1.5 11.1 1 0.7 0.4 1 -2.1 1 -2 0 -3.8 -0.4 -4.1 -0.9z"/>
  <path d="M220 222.7 c1.4 -0.6 2.8 -1.6 3.2 -2.2 0.5 -0.6 0.8 -0.5 0.8 0.3 0 0.7 -1.2 1.7 -2.6 2.2 -3.5 1.4 -4.5 1.1 -1.4 -0.3z"/>
  <path d="M221.2 217 c-1.5 -2.5 -1.5 -3 0.1 -3 0.6 0 1.3 1.1 1.3 2.5 0.2 3 0.2 3 -1.4 0.5z"/>
  <path d="M225.4 217.4 c-1.8 -1.4 -1.8 -1.5 0.4 -0.4 1.3 0.6 3 0.9 3.8 0.6 0.8 -0.3 1.4 -0.1 1.4 0.4 0 1.5 -3.4 1.2 -5.6 -0.6z"/>
  <path d="M216.5 196 c-1.5 -1.6 -2.1 -1.8 -3.4 -0.8 -0.9 0.7 -0.7 0.3 0.4 -1 1.4 -1.7 2.1 -2 2.4 -1 0.2 0.7 1 2.1 1.9 3.1 2.1 2.4 0.9 2.2 -1.3 -0.3z"/>
  <path d="M200.5 149 c-0.3 -0.5 0.1 -1 0.9 -1 0.8 0 1.8 0.5 2.1 1 0.3 0.6 -0.1 1 -0.9 1 -0.8 0 -1.8 -0.4 -2.1 -1z"/>
  <path d="M108.6 137 c-1.9 -4.9 -1.9 -5 -0.3 -5 0.7 0 2 2 2.9 4.5 1.4 3.6 1.4 4.5 0.4 4.5 -0.8 0 -2.1 -1.8 -3 -4z"/>
 </g>
</svg>